<?xml version="1.0" standalone="no"?><!DOCTYPE svg PUBLIC "-//W3C//DTD SVG 1.1//EN" "http://www.w3.org/Graphics/SVG/1.1/DTD/svg11.dtd"><svg t="1665088662373" class="icon" viewBox="0 0 1024 1024" version="1.1" xmlns="http://www.w3.org/2000/svg" p-id="1530" xmlns:xlink="http://www.w3.org/1999/xlink" width="200" height="200"><path d="M510.2592 577.0752c-28.4672 0-56.9344-8.8576-80.7936-26.5728L92.3136 296.2944c-13.568-10.24-16.2304-29.4912-6.0416-43.008s29.4912-16.2304 43.008-6.0416l336.9984 254.1056c26.0608 19.3536 62.5664 19.1488 88.6272-0.6144l338.9952-253.5936c13.568-10.1888 32.8192-7.3728 43.008 6.1952a30.7712 30.7712 0 0 1-6.1952 43.008l-338.8416 253.44c-23.9104 18.2272-52.736 27.2896-81.6128 27.2896z" fill="#FF9813" p-id="1531"></path><path d="M821.7088 866.3552H202.9568c-73.4208 0-133.12-59.6992-133.12-133.12v-452.096c0-73.4208 59.6992-133.12 133.12-133.12h618.752c73.4208 0 133.12 59.6992 133.12 133.12v452.096c0 73.4208-59.6992 133.12-133.12 133.12zM202.9568 209.5104c-39.5264 0-71.68 32.1536-71.68 71.68v452.096c0 39.5264 32.1536 71.68 71.68 71.68h618.752c39.5264 0 71.68-32.1536 71.68-71.68v-452.096c0-39.5264-32.1536-71.68-71.68-71.68H202.9568z" fill="#565B6D" p-id="1532"></path></svg>