<?xml version="1.0" standalone="no"?><!DOCTYPE svg PUBLIC "-//W3C//DTD SVG 1.1//EN" "http://www.w3.org/Graphics/SVG/1.1/DTD/svg11.dtd"><svg t="1665088667162" class="icon" viewBox="0 0 1024 1024" version="1.1" xmlns="http://www.w3.org/2000/svg" p-id="1670" xmlns:xlink="http://www.w3.org/1999/xlink" width="200" height="200"><path d="M734.613333 489.088h-5.12a30.72 30.72 0 0 1-30.08-26.304 153.6 153.6 0 0 0-95.573333-116.330667 30.848 30.848 0 0 1-20.053333-34.645333l0.853333-4.928a30.762667 30.762667 0 0 1 41.386667-22.165333 218.602667 218.602667 0 0 1 138.666666 170.474666 30.016 30.016 0 0 1-30.08 33.898667z m-120.533333-328.405333l0.853333-4.885334a30.613333 30.613333 0 0 1 38.4-23.296 372.16 372.16 0 0 1 266.026667 323.541334 30.570667 30.570667 0 0 1-30.506667 33.045333h-4.906666a29.866667 29.866667 0 0 1-30.08-27.136 306.24 306.24 0 0 0-219.093334-266.517333 29.866667 29.866667 0 0 1-20.693333-34.752z" fill="#FF9C00" p-id="1671"></path><path d="M814.186667 723.712a215.872 215.872 0 0 0-32.213334-45.653333c-68.906667-78.272-129.92-99.84-197.76-69.952-7.466667 3.392-13.44 6.4-18.986666 9.408l-18.346667 10.666666a161.770667 161.770667 0 0 1-16-13.824 670.165333 670.165333 0 0 1-78.08-95.125333 704.576 704.576 0 0 1-56.96-93.205333l-5.333333-11.221334-3.84-8.64-1.28-3.349333-1.066667-2.368 8.32-5.013333c42.453333-25.877333 65.066667-54.698667 71.04-90.709334 5.973333-35.008-4.48-74.368-33.706667-127.658666s-65.066667-82.496-110.08-90.005334a135.509333 135.509333 0 0 0-21.973333-1.792c-32.853333 0-61.013333 10.368-107.52 39.573334l-12.373333 7.786666-11.093334 6.826667a128 128 0 0 0-56.96 87.36 382.997333 382.997333 0 0 0 19.84 193.173333 871.168 871.168 0 0 0 116.693334 228.714667 956.885333 956.885333 0 0 0 115.626666 136.213333 730.816 730.816 0 0 0 122.88 97.685334A314.496 314.496 0 0 0 643.946667 938.666667a131.562667 131.562667 0 0 0 60.16-13.546667l34.773333-19.712c46.72-27.114667 68.906667-48.661333 82.346667-79.509333a116.117333 116.117333 0 0 0-7.04-102.186667zM198.933333 198.656l5.12-3.434667 31.573334-19.754666 14.506666-8.384a99.221333 99.221333 0 0 1 47.786667-15.616 61.354667 61.354667 0 0 1 10.453333 0.853333c22.826667 3.776 42.88 22.016 61.44 55.808 21.12 38.592 29.653333 66.752 26.453334 86.08a63.466667 63.466667 0 0 1-33.92 41.557333l-12.373334 7.637334-16.64 9.941333a39.978667 39.978667 0 0 0-18.133333 25.856l-0.64 4.565333-0.426667 5.525334a155.477333 155.477333 0 0 0 19.84 65.088 810.56 810.56 0 0 0 62.293334 102.165333 741.205333 741.205333 0 0 0 86.613333 104.938667 181.952 181.952 0 0 0 36.48 28.202666 51.434667 51.434667 0 0 0 45.653333 5.077334l4.48-2.133334 23.04-13.952 9.813334-5.461333 10.026666-4.949333 5.76-2.410667 6.186667-2.133333c20.693333-6.058667 48.64-4.906667 98.986667 49.664l8.746666 9.92 5.546667 6.549333 6.186667 8.277333a63.829333 63.829333 0 0 1 14.293333 62.314667 101.12 101.12 0 0 1-46.08 43.2l-36.693333 21.184c-29.013333 17.450667-87.893333 2.901333-153.6-37.952a669.226667 669.226667 0 0 1-111.146667-88.554667 908.8 908.8 0 0 1-107.733333-126.848 807.850667 807.850667 0 0 1-107.946667-211.2 330.453333 330.453333 0 0 1-18.346667-159.829333 72.192 72.192 0 0 1 22.4-41.792z" fill="#333333" p-id="1672"></path></svg>